<svg width="630" height="132" viewBox="0 0 630 132" fill="none" xmlns="http://www.w3.org/2000/svg">
    <path d="M7.53098 83C7.53098 84.933 9.09798 86.5 11.031 86.5C12.964 86.5 14.531 84.933 14.531 83H7.53098ZM1.52513 42.5251C0.158295 43.8919 0.158288 46.108 1.52512 47.4749C2.89195 48.8417 5.10803 48.8417 6.47487 47.4749L1.52513 42.5251ZM80.8344 47.4749C82.2012 48.8417 84.4173 48.8417 85.7841 47.4749C87.1509 46.108 87.1509 43.892 85.7841 42.5251L80.8344 47.4749ZM72.7783 83C72.7783 84.933 74.3453 86.5 76.2783 86.5C78.2113 86.5 79.7783 84.933 79.7783 83H72.7783ZM43.5835 5.07183L46.0714 7.53364L43.5835 5.07183ZM43.7257 5.07183L41.2378 7.53364L43.7257 5.07183ZM14.531 83V37.9691H7.53098V83H14.531ZM8.55611 35.4942L1.52513 42.5251L6.47487 47.4749L13.5058 40.444L8.55611 35.4942ZM13.5188 40.4309L46.0714 7.53364L41.0957 2.61003L8.5431 35.5073L13.5188 40.4309ZM41.2378 7.53364L73.7904 40.4309L78.7662 35.5073L46.2136 2.61003L41.2378 7.53364ZM73.8034 40.4439L80.8344 47.4749L85.7841 42.5251L78.7532 35.4942L73.8034 40.4439ZM72.7783 37.9691V83H79.7783V37.9691H72.7783ZM46.0714 7.53364C44.7408 8.87835 42.5684 8.87835 41.2378 7.53364L46.2136 2.61003C44.8047 1.18622 42.5046 1.18622 41.0957 2.61003L46.0714 7.53364Z"
          fill="white"/>
    <path d="M21.3823 76.2453C20.7746 77.1677 21.0298 78.4081 21.9521 79.0158C22.8745 79.6234 24.1149 79.3683 24.7226 78.4459L21.3823 76.2453ZM60.2998 43.3086C60.8936 42.3772 60.62 41.1408 59.6886 40.547C58.7572 39.9531 57.5208 40.2268 56.927 41.1581L60.2998 43.3086ZM45.5054 62.7919L47.1918 63.8671L45.5054 62.7919ZM43.7497 62.6632L45.5748 61.8453L43.7497 62.6632ZM24.7226 78.4459L39.9542 55.3255L36.6139 53.125L21.3823 76.2453L24.7226 78.4459ZM47.1918 63.8671L60.2998 43.3086L56.927 41.1581L43.8191 61.7166L47.1918 63.8671ZM38.2066 55.1843L41.9246 63.4811L45.5748 61.8453L41.8568 53.5486L38.2066 55.1843ZM43.8191 61.7166C44.247 61.0455 45.2493 61.119 45.5748 61.8453L41.9246 63.4811C42.901 65.6601 45.9081 65.8805 47.1918 63.8671L43.8191 61.7166ZM39.9542 55.3255C39.5201 55.9846 38.5293 55.9045 38.2066 55.1843L41.8568 53.5486C40.8886 51.388 37.9165 51.1479 36.6139 53.125L39.9542 55.3255Z"
          fill="white"/>
    <path d="M61.7527 36.8746C62.1085 36.7094 62.5073 36.9995 62.4596 37.3889L61.5836 44.5458C61.5373 44.9242 61.1015 45.1136 60.7932 44.8894L55.1298 40.7697C54.8215 40.5454 54.8675 40.0725 55.2133 39.9119L61.7527 36.8746Z"
          fill="white"/>
    <path d="M131.917 57.9512V83H123.479V19.0156H147.078C154.08 19.0156 159.558 20.8027 163.513 24.377C167.498 27.9512 169.49 32.6826 169.49 38.5713C169.49 44.7822 167.542 49.5723 163.645 52.9414C159.778 56.2812 154.226 57.9512 146.99 57.9512H131.917ZM131.917 51.0518H147.078C151.59 51.0518 155.047 49.9971 157.449 47.8877C159.851 45.749 161.052 42.6729 161.052 38.6592C161.052 34.8506 159.851 31.8037 157.449 29.5186C155.047 27.2334 151.751 26.0469 147.561 25.959H131.917V51.0518ZM176.214 58.7861C176.214 54.1279 177.122 49.9385 178.938 46.2178C180.784 42.4971 183.333 39.626 186.585 37.6045C189.866 35.583 193.601 34.5723 197.791 34.5723C204.265 34.5723 209.495 36.8135 213.479 41.2959C217.493 45.7783 219.5 51.7402 219.5 59.1816V59.7529C219.5 64.3818 218.606 68.542 216.819 72.2334C215.061 75.8955 212.527 78.752 209.216 80.8027C205.935 82.8535 202.156 83.8789 197.879 83.8789C191.433 83.8789 186.204 81.6377 182.19 77.1553C178.206 72.6729 176.214 66.7402 176.214 59.3574V58.7861ZM184.387 59.7529C184.387 65.0264 185.603 69.2598 188.035 72.4531C190.496 75.6465 193.777 77.2432 197.879 77.2432C202.009 77.2432 205.291 75.6318 207.722 72.4092C210.154 69.1572 211.37 64.6162 211.37 58.7861C211.37 53.5713 210.125 49.3525 207.634 46.1299C205.174 42.8779 201.892 41.252 197.791 41.252C193.777 41.252 190.54 42.8486 188.079 46.042C185.618 49.2354 184.387 53.8057 184.387 59.7529ZM252.678 42.7461C251.448 42.541 250.115 42.4385 248.679 42.4385C243.347 42.4385 239.729 44.709 237.825 49.25V83H229.695V35.4512H237.605L237.737 40.9443C240.403 36.6963 244.182 34.5723 249.075 34.5723C250.657 34.5723 251.858 34.7773 252.678 35.1875V42.7461ZM273.421 23.9375V35.4512H282.298V41.7354H273.421V71.2227C273.421 73.127 273.816 74.5625 274.607 75.5293C275.398 76.4668 276.746 76.9355 278.65 76.9355C279.588 76.9355 280.877 76.7598 282.517 76.4082V83C280.379 83.5859 278.299 83.8789 276.277 83.8789C272.644 83.8789 269.905 82.7803 268.059 80.583C266.214 78.3857 265.291 75.2656 265.291 71.2227V41.7354H256.633V35.4512H265.291V23.9375H273.421ZM295.833 83V41.7354H288.318V35.4512H295.833V30.5732C295.833 25.4756 297.195 21.5352 299.92 18.752C302.644 15.9688 306.497 14.5771 311.477 14.5771C313.352 14.5771 315.213 14.8262 317.058 15.3242L316.619 21.916C315.242 21.6523 313.777 21.5205 312.224 21.5205C309.588 21.5205 307.551 22.2969 306.116 23.8496C304.68 25.373 303.963 27.5703 303.963 30.4414V35.4512H314.114V41.7354H303.963V83H295.833ZM320.969 58.7861C320.969 54.1279 321.878 49.9385 323.694 46.2178C325.54 42.4971 328.089 39.626 331.341 37.6045C334.622 35.583 338.357 34.5723 342.547 34.5723C349.021 34.5723 354.251 36.8135 358.235 41.2959C362.249 45.7783 364.256 51.7402 364.256 59.1816V59.7529C364.256 64.3818 363.362 68.542 361.575 72.2334C359.817 75.8955 357.283 78.752 353.972 80.8027C350.691 82.8535 346.912 83.8789 342.634 83.8789C336.189 83.8789 330.96 81.6377 326.946 77.1553C322.962 72.6729 320.969 66.7402 320.969 59.3574V58.7861ZM329.143 59.7529C329.143 65.0264 330.359 69.2598 332.791 72.4531C335.252 75.6465 338.533 77.2432 342.634 77.2432C346.765 77.2432 350.047 75.6318 352.478 72.4092C354.91 69.1572 356.126 64.6162 356.126 58.7861C356.126 53.5713 354.881 49.3525 352.39 46.1299C349.929 42.8779 346.648 41.252 342.547 41.252C338.533 41.252 335.296 42.8486 332.835 46.042C330.374 49.2354 329.143 53.8057 329.143 59.7529ZM383.284 83H375.154V15.5H383.284V83ZM405.169 83H397.039V35.4512H405.169V83ZM396.38 22.8389C396.38 21.5205 396.775 20.4072 397.566 19.499C398.386 18.5908 399.588 18.1367 401.17 18.1367C402.752 18.1367 403.953 18.5908 404.773 19.499C405.593 20.4072 406.004 21.5205 406.004 22.8389C406.004 24.1572 405.593 25.2559 404.773 26.1348C403.953 27.0137 402.752 27.4531 401.17 27.4531C399.588 27.4531 398.386 27.0137 397.566 26.1348C396.775 25.2559 396.38 24.1572 396.38 22.8389ZM416.067 58.7861C416.067 54.1279 416.975 49.9385 418.792 46.2178C420.637 42.4971 423.186 39.626 426.438 37.6045C429.719 35.583 433.455 34.5723 437.644 34.5723C444.119 34.5723 449.348 36.8135 453.333 41.2959C457.346 45.7783 459.353 51.7402 459.353 59.1816V59.7529C459.353 64.3818 458.46 68.542 456.673 72.2334C454.915 75.8955 452.381 78.752 449.07 80.8027C445.789 82.8535 442.009 83.8789 437.732 83.8789C431.287 83.8789 426.057 81.6377 422.044 77.1553C418.059 72.6729 416.067 66.7402 416.067 59.3574V58.7861ZM424.241 59.7529C424.241 65.0264 425.457 69.2598 427.888 72.4531C430.349 75.6465 433.631 77.2432 437.732 77.2432C441.863 77.2432 445.144 75.6318 447.576 72.4092C450.008 69.1572 451.223 64.6162 451.223 58.7861C451.223 53.5713 449.978 49.3525 447.488 46.1299C445.027 42.8779 441.746 41.252 437.644 41.252C433.631 41.252 430.393 42.8486 427.932 46.042C425.471 49.2354 424.241 53.8057 424.241 59.7529ZM542.322 83H533.841V53.4248H501.585V83H493.147V19.0156H501.585V46.5254H533.841V19.0156H542.322V83ZM585.388 78.2979C582.224 82.0186 577.581 83.8789 571.458 83.8789C566.389 83.8789 562.522 82.4141 559.856 79.4844C557.219 76.5254 555.886 72.1602 555.857 66.3887V35.4512H563.987V66.1689C563.987 73.376 566.917 76.9795 572.776 76.9795C578.987 76.9795 583.118 74.665 585.169 70.0361V35.4512H593.299V83H585.564L585.388 78.2979ZM616.721 23.9375V35.4512H625.598V41.7354H616.721V71.2227C616.721 73.127 617.117 74.5625 617.908 75.5293C618.699 76.4668 620.047 76.9355 621.951 76.9355C622.888 76.9355 624.177 76.7598 625.818 76.4082V83C623.679 83.5859 621.599 83.8789 619.578 83.8789C615.945 83.8789 613.206 82.7803 611.36 80.583C609.514 78.3857 608.591 75.2656 608.591 71.2227V41.7354H599.934V35.4512H608.591V23.9375H616.721Z"
          fill="white"/>
    <path d="M128.732 122.2C126.652 122.2 124.786 121.747 123.132 120.84C121.506 119.933 120.226 118.667 119.292 117.04C118.359 115.387 117.892 113.533 117.892 111.48C117.892 109.427 118.359 107.587 119.292 105.96C120.226 104.333 121.506 103.067 123.132 102.16C124.786 101.253 126.652 100.8 128.732 100.8C130.546 100.8 132.159 101.16 133.572 101.88C135.012 102.573 136.146 103.6 136.972 104.96L134.852 106.4C134.159 105.36 133.279 104.587 132.212 104.08C131.146 103.547 129.986 103.28 128.732 103.28C127.212 103.28 125.839 103.627 124.612 104.32C123.412 104.987 122.466 105.947 121.772 107.2C121.106 108.453 120.772 109.88 120.772 111.48C120.772 113.107 121.106 114.547 121.772 115.8C122.466 117.027 123.412 117.987 124.612 118.68C125.839 119.347 127.212 119.68 128.732 119.68C129.986 119.68 131.146 119.427 132.212 118.92C133.279 118.413 134.159 117.64 134.852 116.6L136.972 118.04C136.146 119.4 135.012 120.44 133.572 121.16C132.132 121.853 130.519 122.2 128.732 122.2ZM150.8 122.2C148.773 122.2 146.947 121.747 145.32 120.84C143.693 119.907 142.413 118.627 141.48 117C140.547 115.373 140.08 113.533 140.08 111.48C140.08 109.427 140.547 107.587 141.48 105.96C142.413 104.333 143.693 103.067 145.32 102.16C146.947 101.253 148.773 100.8 150.8 100.8C152.827 100.8 154.653 101.253 156.28 102.16C157.907 103.067 159.173 104.333 160.08 105.96C161.013 107.587 161.48 109.427 161.48 111.48C161.48 113.533 161.013 115.373 160.08 117C159.173 118.627 157.907 119.907 156.28 120.84C154.653 121.747 152.827 122.2 150.8 122.2ZM150.8 119.68C152.293 119.68 153.627 119.347 154.8 118.68C156 117.987 156.933 117.013 157.6 115.76C158.267 114.507 158.6 113.08 158.6 111.48C158.6 109.88 158.267 108.453 157.6 107.2C156.933 105.947 156 104.987 154.8 104.32C153.627 103.627 152.293 103.28 150.8 103.28C149.307 103.28 147.96 103.627 146.76 104.32C145.587 104.987 144.653 105.947 143.96 107.2C143.293 108.453 142.96 109.88 142.96 111.48C142.96 113.08 143.293 114.507 143.96 115.76C144.653 117.013 145.587 117.987 146.76 118.68C147.96 119.347 149.307 119.68 150.8 119.68ZM193.518 100.8C196.158 100.8 198.225 101.56 199.718 103.08C201.238 104.6 201.998 106.84 201.998 109.8V122H199.158V110.08C199.158 107.893 198.625 106.227 197.558 105.08C196.518 103.933 195.038 103.36 193.118 103.36C190.931 103.36 189.211 104.04 187.958 105.4C186.705 106.733 186.078 108.587 186.078 110.96V122H183.238V110.08C183.238 107.893 182.705 106.227 181.638 105.08C180.598 103.933 179.105 103.36 177.158 103.36C174.998 103.36 173.278 104.04 171.998 105.4C170.745 106.733 170.118 108.587 170.118 110.96V122H167.278V100.96H169.998V104.8C170.745 103.52 171.785 102.533 173.118 101.84C174.451 101.147 175.985 100.8 177.718 100.8C179.478 100.8 180.998 101.173 182.278 101.92C183.585 102.667 184.558 103.773 185.198 105.24C185.971 103.853 187.078 102.773 188.518 102C189.985 101.2 191.651 100.8 193.518 100.8ZM220.54 100.8C222.513 100.8 224.3 101.253 225.9 102.16C227.5 103.04 228.753 104.293 229.66 105.92C230.567 107.547 231.02 109.4 231.02 111.48C231.02 113.587 230.567 115.453 229.66 117.08C228.753 118.707 227.5 119.973 225.9 120.88C224.327 121.76 222.54 122.2 220.54 122.2C218.833 122.2 217.287 121.853 215.9 121.16C214.54 120.44 213.42 119.4 212.54 118.04V129.76H209.7V100.96H212.42V105.12C213.273 103.733 214.393 102.667 215.78 101.92C217.193 101.173 218.78 100.8 220.54 100.8ZM220.34 119.68C221.807 119.68 223.14 119.347 224.34 118.68C225.54 117.987 226.473 117.013 227.14 115.76C227.833 114.507 228.18 113.08 228.18 111.48C228.18 109.88 227.833 108.467 227.14 107.24C226.473 105.987 225.54 105.013 224.34 104.32C223.14 103.627 221.807 103.28 220.34 103.28C218.847 103.28 217.5 103.627 216.3 104.32C215.127 105.013 214.193 105.987 213.5 107.24C212.833 108.467 212.5 109.88 212.5 111.48C212.5 113.08 212.833 114.507 213.5 115.76C214.193 117.013 215.127 117.987 216.3 118.68C217.5 119.347 218.847 119.68 220.34 119.68ZM244.052 100.8C246.799 100.8 248.905 101.493 250.372 102.88C251.839 104.24 252.572 106.267 252.572 108.96V122H249.852V118.72C249.212 119.813 248.265 120.667 247.012 121.28C245.785 121.893 244.319 122.2 242.612 122.2C240.265 122.2 238.399 121.64 237.012 120.52C235.625 119.4 234.932 117.92 234.932 116.08C234.932 114.293 235.572 112.853 236.852 111.76C238.159 110.667 240.225 110.12 243.052 110.12H249.732V108.84C249.732 107.027 249.225 105.653 248.212 104.72C247.199 103.76 245.719 103.28 243.772 103.28C242.439 103.28 241.159 103.507 239.932 103.96C238.705 104.387 237.652 104.987 236.772 105.76L235.492 103.64C236.559 102.733 237.839 102.04 239.332 101.56C240.825 101.053 242.399 100.8 244.052 100.8ZM243.052 119.96C244.652 119.96 246.025 119.6 247.172 118.88C248.319 118.133 249.172 117.067 249.732 115.68V112.24H243.132C239.532 112.24 237.732 113.493 237.732 116C237.732 117.227 238.199 118.2 239.132 118.92C240.065 119.613 241.372 119.96 243.052 119.96ZM263.006 105.08C263.673 103.667 264.659 102.6 265.966 101.88C267.299 101.16 268.939 100.8 270.886 100.8V103.56L270.206 103.52C267.993 103.52 266.259 104.2 265.006 105.56C263.753 106.92 263.126 108.827 263.126 111.28V122H260.286V100.96H263.006V105.08ZM294.153 112.36H276.553C276.713 114.547 277.553 116.32 279.073 117.68C280.593 119.013 282.513 119.68 284.833 119.68C286.139 119.68 287.339 119.453 288.433 119C289.526 118.52 290.473 117.827 291.273 116.92L292.873 118.76C291.939 119.88 290.766 120.733 289.353 121.32C287.966 121.907 286.433 122.2 284.753 122.2C282.593 122.2 280.673 121.747 278.993 120.84C277.339 119.907 276.046 118.627 275.113 117C274.179 115.373 273.713 113.533 273.713 111.48C273.713 109.427 274.153 107.587 275.033 105.96C275.939 104.333 277.166 103.067 278.713 102.16C280.286 101.253 282.046 100.8 283.993 100.8C285.939 100.8 287.686 101.253 289.233 102.16C290.779 103.067 291.993 104.333 292.873 105.96C293.753 107.56 294.193 109.4 294.193 111.48L294.153 112.36ZM283.993 103.24C281.966 103.24 280.259 103.893 278.873 105.2C277.513 106.48 276.739 108.16 276.553 110.24H291.473C291.286 108.16 290.499 106.48 289.113 105.2C287.753 103.893 286.046 103.24 283.993 103.24ZM328.122 100.96L317.602 124.52C316.749 126.493 315.762 127.893 314.642 128.72C313.522 129.547 312.175 129.96 310.602 129.96C309.589 129.96 308.642 129.8 307.762 129.48C306.882 129.16 306.122 128.68 305.482 128.04L306.802 125.92C307.869 126.987 309.149 127.52 310.642 127.52C311.602 127.52 312.415 127.253 313.082 126.72C313.775 126.187 314.415 125.28 315.002 124L315.922 121.96L306.522 100.96H309.482L317.402 118.84L325.322 100.96H328.122ZM340.136 122.2C338.109 122.2 336.283 121.747 334.656 120.84C333.029 119.907 331.749 118.627 330.816 117C329.883 115.373 329.416 113.533 329.416 111.48C329.416 109.427 329.883 107.587 330.816 105.96C331.749 104.333 333.029 103.067 334.656 102.16C336.283 101.253 338.109 100.8 340.136 100.8C342.163 100.8 343.989 101.253 345.616 102.16C347.243 103.067 348.509 104.333 349.416 105.96C350.349 107.587 350.816 109.427 350.816 111.48C350.816 113.533 350.349 115.373 349.416 117C348.509 118.627 347.243 119.907 345.616 120.84C343.989 121.747 342.163 122.2 340.136 122.2ZM340.136 119.68C341.629 119.68 342.963 119.347 344.136 118.68C345.336 117.987 346.269 117.013 346.936 115.76C347.603 114.507 347.936 113.08 347.936 111.48C347.936 109.88 347.603 108.453 346.936 107.2C346.269 105.947 345.336 104.987 344.136 104.32C342.963 103.627 341.629 103.28 340.136 103.28C338.643 103.28 337.296 103.627 336.096 104.32C334.923 104.987 333.989 105.947 333.296 107.2C332.629 108.453 332.296 109.88 332.296 111.48C332.296 113.08 332.629 114.507 333.296 115.76C333.989 117.013 334.923 117.987 336.096 118.68C337.296 119.347 338.643 119.68 340.136 119.68ZM375.574 100.96V122H372.854V118.16C372.107 119.44 371.081 120.44 369.774 121.16C368.467 121.853 366.974 122.2 365.294 122.2C362.547 122.2 360.374 121.44 358.774 119.92C357.201 118.373 356.414 116.12 356.414 113.16V100.96H359.254V112.88C359.254 115.093 359.801 116.773 360.894 117.92C361.987 119.067 363.547 119.64 365.574 119.64C367.787 119.64 369.534 118.973 370.814 117.64C372.094 116.28 372.734 114.4 372.734 112V100.96H375.574ZM386.248 105.08C386.915 103.667 387.901 102.6 389.208 101.88C390.541 101.16 392.181 100.8 394.128 100.8V103.56L393.448 103.52C391.235 103.52 389.501 104.2 388.248 105.56C386.995 106.92 386.368 108.827 386.368 111.28V122H383.528V100.96H386.248V105.08ZM412.771 105.08C413.438 103.667 414.425 102.6 415.731 101.88C417.065 101.16 418.705 100.8 420.651 100.8V103.56L419.971 103.52C417.758 103.52 416.025 104.2 414.771 105.56C413.518 106.92 412.891 108.827 412.891 111.28V122H410.051V100.96H412.771V105.08ZM443.918 112.36H426.318C426.478 114.547 427.318 116.32 428.838 117.68C430.358 119.013 432.278 119.68 434.598 119.68C435.905 119.68 437.105 119.453 438.198 119C439.292 118.52 440.238 117.827 441.038 116.92L442.638 118.76C441.705 119.88 440.532 120.733 439.118 121.32C437.732 121.907 436.198 122.2 434.518 122.2C432.358 122.2 430.438 121.747 428.758 120.84C427.105 119.907 425.812 118.627 424.878 117C423.945 115.373 423.478 113.533 423.478 111.48C423.478 109.427 423.918 107.587 424.798 105.96C425.705 104.333 426.932 103.067 428.478 102.16C430.052 101.253 431.812 100.8 433.758 100.8C435.705 100.8 437.452 101.253 438.998 102.16C440.545 103.067 441.758 104.333 442.638 105.96C443.518 107.56 443.958 109.4 443.958 111.48L443.918 112.36ZM433.758 103.24C431.732 103.24 430.025 103.893 428.638 105.2C427.278 106.48 426.505 108.16 426.318 110.24H441.238C441.052 108.16 440.265 106.48 438.878 105.2C437.518 103.893 435.812 103.24 433.758 103.24ZM460.819 120.72C460.286 121.2 459.619 121.573 458.819 121.84C458.046 122.08 457.232 122.2 456.379 122.2C454.406 122.2 452.886 121.667 451.819 120.6C450.752 119.533 450.219 118.027 450.219 116.08V103.36H446.459V100.96H450.219V96.36H453.059V100.96H459.459V103.36H453.059V115.92C453.059 117.173 453.366 118.133 453.979 118.8C454.619 119.44 455.526 119.76 456.699 119.76C457.286 119.76 457.846 119.667 458.379 119.48C458.939 119.293 459.419 119.027 459.819 118.68L460.819 120.72ZM484.949 100.96V122H482.229V118.16C481.482 119.44 480.456 120.44 479.149 121.16C477.842 121.853 476.349 122.2 474.669 122.2C471.922 122.2 469.749 121.44 468.149 119.92C466.576 118.373 465.789 116.12 465.789 113.16V100.96H468.629V112.88C468.629 115.093 469.176 116.773 470.269 117.92C471.362 119.067 472.922 119.64 474.949 119.64C477.162 119.64 478.909 118.973 480.189 117.64C481.469 116.28 482.109 114.4 482.109 112V100.96H484.949ZM495.623 105.08C496.29 103.667 497.276 102.6 498.583 101.88C499.916 101.16 501.556 100.8 503.503 100.8V103.56L502.823 103.52C500.61 103.52 498.876 104.2 497.623 105.56C496.37 106.92 495.743 108.827 495.743 111.28V122H492.903V100.96H495.623V105.08ZM519.365 100.8C522.005 100.8 524.099 101.573 525.645 103.12C527.219 104.64 528.005 106.867 528.005 109.8V122H525.165V110.08C525.165 107.893 524.619 106.227 523.525 105.08C522.432 103.933 520.872 103.36 518.845 103.36C516.579 103.36 514.779 104.04 513.445 105.4C512.139 106.733 511.485 108.587 511.485 110.96V122H508.645V100.96H511.365V104.84C512.139 103.56 513.205 102.573 514.565 101.88C515.952 101.16 517.552 100.8 519.365 100.8ZM541.356 122.2C539.649 122.2 538.009 121.96 536.436 121.48C534.889 120.973 533.676 120.347 532.796 119.6L534.076 117.36C534.956 118.053 536.062 118.627 537.396 119.08C538.729 119.507 540.116 119.72 541.556 119.72C543.476 119.72 544.889 119.427 545.796 118.84C546.729 118.227 547.196 117.373 547.196 116.28C547.196 115.507 546.942 114.907 546.436 114.48C545.929 114.027 545.289 113.693 544.516 113.48C543.742 113.24 542.716 113.013 541.436 112.8C539.729 112.48 538.356 112.16 537.316 111.84C536.276 111.493 535.382 110.92 534.636 110.12C533.916 109.32 533.556 108.213 533.556 106.8C533.556 105.04 534.289 103.6 535.756 102.48C537.222 101.36 539.262 100.8 541.876 100.8C543.236 100.8 544.596 100.987 545.956 101.36C547.316 101.707 548.436 102.173 549.316 102.76L548.076 105.04C546.342 103.84 544.276 103.24 541.876 103.24C540.062 103.24 538.689 103.56 537.756 104.2C536.849 104.84 536.396 105.68 536.396 106.72C536.396 107.52 536.649 108.16 537.156 108.64C537.689 109.12 538.342 109.48 539.116 109.72C539.889 109.933 540.956 110.16 542.316 110.4C543.996 110.72 545.342 111.04 546.356 111.36C547.369 111.68 548.236 112.227 548.956 113C549.676 113.773 550.036 114.84 550.036 116.2C550.036 118.04 549.262 119.507 547.716 120.6C546.196 121.667 544.076 122.2 541.356 122.2Z"
          fill="white"/>
</svg>
