<svg version="1.2" baseProfile="tiny-ps" xmlns="http://www.w3.org/2000/svg" viewBox="0 0 680 170" width="680" height="170">
	<title>logo-svg</title>
	<style>
		tspan { white-space:pre }
		.shp0 { fill: #000000 }
	</style>
	<g id="Folder 1">
		<path id="Layer" fill-rule="evenodd" class="shp0" d="M37.53 105.96C35.6 105.96 34.03 104.39 34.03 102.46L34.03 65.88L32.97 66.93C31.61 68.3 29.39 68.3 28.02 66.93C26.66 65.57 26.66 63.35 28.02 61.98L35.04 54.96L67.6 22.07C69 20.64 71.3 20.64 72.71 22.07L105.27 54.96L112.28 61.98C113.65 63.35 113.65 65.57 112.28 66.93C110.92 68.3 108.7 68.3 107.33 66.93L106.28 65.88L106.28 102.46C106.28 104.39 104.71 105.96 102.78 105.96C100.84 105.96 99.28 104.39 99.28 102.46L99.28 58.87L70.15 29.43L41.03 58.87L41.03 102.46C41.03 104.39 39.46 105.96 37.53 105.96ZM70.23 24.53L67.74 26.99L70.23 24.53ZM70.08 24.53L72.57 26.99L70.08 24.53Z" />
		<path id="Layer" fill-rule="evenodd" class="shp0" d="M48.45 98.47C47.53 97.87 47.27 96.63 47.88 95.7L63.11 72.58C64.42 70.61 67.39 70.85 68.36 73.01L71.32 79.61L83.43 60.62C84.02 59.68 85.26 59.41 86.19 60C87.12 60.6 87.39 61.83 86.8 62.77L73.69 83.32C72.41 85.34 69.4 85.12 68.42 82.94L65.45 76.3L51.22 97.9C50.61 98.83 49.37 99.08 48.45 98.47ZM70.25 82.12L72.07 81.3L70.25 82.12ZM72 82.25L73.69 83.32L72 82.25Z" />
		<path id="Layer" class="shp0" d="M88.25 56.33C88.61 56.17 89.01 56.46 88.96 56.85L88.08 64C88.04 64.38 87.6 64.57 87.29 64.35L81.63 60.23C81.32 60 81.37 59.53 81.71 59.37L88.25 56.33Z" />
		<path id="Layer" fill-rule="evenodd" class="shp0" d="M158.42 77.41L158.42 102.46L149.98 102.46L149.98 38.47L173.58 38.47C180.58 38.47 186.06 40.26 190.01 43.83C194 47.41 195.99 52.14 195.99 58.03C195.99 64.24 194.04 69.03 190.14 72.4C186.28 75.74 180.73 77.41 173.49 77.41L158.42 77.41ZM158.42 70.51L173.58 70.51C178.09 70.51 181.55 69.45 183.95 67.35C186.35 65.21 187.55 62.13 187.55 58.12C187.55 54.31 186.35 51.26 183.95 48.98C181.55 46.69 178.25 45.5 174.06 45.42L158.42 45.42L158.42 70.51ZM202.71 78.24C202.71 73.59 203.62 69.4 205.44 65.68C207.28 61.95 209.83 59.08 213.08 57.06C216.37 55.04 220.1 54.03 224.29 54.03C230.76 54.03 235.99 56.27 239.98 60.75C243.99 65.24 246 71.2 246 78.64L246 79.21C246 83.84 245.11 88 243.32 91.69C241.56 95.35 239.03 98.21 235.72 100.26C232.43 102.31 228.66 103.34 224.38 103.34C217.93 103.34 212.7 101.1 208.69 96.61C204.71 92.13 202.71 86.2 202.71 78.81L202.71 78.24ZM210.89 79.21C210.89 84.48 212.1 88.72 214.53 91.91C217 95.1 220.28 96.7 224.38 96.7C228.51 96.7 231.79 95.09 234.22 91.87C236.65 88.61 237.87 84.07 237.87 78.24C237.87 73.03 236.62 68.81 234.13 65.59C231.67 62.34 228.39 60.71 224.29 60.71C220.28 60.71 217.04 62.31 214.58 65.5C212.12 68.69 210.89 73.26 210.89 79.21ZM279.18 62.2C277.95 62 276.61 61.9 275.18 61.9C269.85 61.9 266.23 64.17 264.32 68.71L264.32 102.46L256.19 102.46L256.19 54.91L264.1 54.91L264.24 60.4C266.9 56.15 270.68 54.03 275.57 54.03C277.16 54.03 278.36 54.23 279.18 54.65L279.18 62.2ZM299.92 43.39L299.92 54.91L308.8 54.91L308.8 61.19L299.92 61.19L299.92 90.68C299.92 92.58 300.32 94.02 301.11 94.99C301.9 95.92 303.25 96.39 305.15 96.39C306.09 96.39 307.38 96.22 309.02 95.87L309.02 102.46C306.88 103.04 304.8 103.34 302.78 103.34C299.14 103.34 296.4 102.24 294.56 100.04C292.71 97.84 291.79 94.72 291.79 90.68L291.79 61.19L283.13 61.19L283.13 54.91L291.79 54.91L291.79 43.39L299.92 43.39ZM322.33 102.46L322.33 61.19L314.82 61.19L314.82 54.91L322.33 54.91L322.33 50.03C322.33 44.93 323.69 40.99 326.42 38.21C329.14 35.43 333 34.03 337.98 34.03C339.85 34.03 341.71 34.28 343.56 34.78L343.12 41.37C341.74 41.11 340.28 40.98 338.72 40.98C336.09 40.98 334.05 41.75 332.62 43.31C331.18 44.83 330.46 47.03 330.46 49.9L330.46 54.91L340.61 54.91L340.61 61.19L330.46 61.19L330.46 102.46L322.33 102.46ZM347.47 78.24C347.47 73.59 348.38 69.4 350.19 65.68C352.04 61.95 354.59 59.08 357.84 57.06C361.12 55.04 364.86 54.03 369.05 54.03C375.52 54.03 380.75 56.27 384.73 60.75C388.75 65.24 390.76 71.2 390.76 78.64L390.76 79.21C390.76 83.84 389.86 88 388.07 91.69C386.32 95.35 383.78 98.21 380.47 100.26C377.19 102.31 373.41 103.34 369.13 103.34C362.69 103.34 357.46 101.1 353.45 96.61C349.46 92.13 347.47 86.2 347.47 78.81L347.47 78.24ZM355.64 79.21C355.64 84.48 356.86 88.72 359.29 91.91C361.75 95.1 365.03 96.7 369.13 96.7C373.26 96.7 376.55 95.09 378.98 91.87C381.41 88.61 382.63 84.07 382.63 78.24C382.63 73.03 381.38 68.81 378.89 65.59C376.43 62.34 373.15 60.71 369.05 60.71C365.03 60.71 361.8 62.31 359.33 65.5C356.87 68.69 355.64 73.26 355.64 79.21ZM409.78 102.46L401.65 102.46L401.65 34.96L409.78 34.96L409.78 102.46ZM431.67 102.46L423.54 102.46L423.54 54.91L431.67 54.91L431.67 102.46ZM422.88 42.3C422.88 40.98 423.27 39.86 424.07 38.96C424.89 38.05 426.09 37.59 427.67 37.59C429.25 37.59 430.45 38.05 431.27 38.96C432.09 39.86 432.5 40.98 432.5 42.3C432.5 43.61 432.09 44.71 431.27 45.59C430.45 46.47 429.25 46.91 427.67 46.91C426.09 46.91 424.89 46.47 424.07 45.59C423.27 44.71 422.88 43.61 422.88 42.3ZM442.57 78.24C442.57 73.59 443.47 69.4 445.29 65.68C447.14 61.95 449.69 59.08 452.94 57.06C456.22 55.04 459.95 54.03 464.14 54.03C470.62 54.03 475.85 56.27 479.83 60.75C483.85 65.24 485.85 71.2 485.85 78.64L485.85 79.21C485.85 83.84 484.96 88 483.17 91.69C481.41 95.35 478.88 98.21 475.57 100.26C472.29 102.31 468.51 103.34 464.23 103.34C457.79 103.34 452.56 101.1 448.54 96.61C444.56 92.13 442.57 86.2 442.57 78.81L442.57 78.24ZM450.74 79.21C450.74 84.48 451.96 88.72 454.39 91.91C456.85 95.1 460.13 96.7 464.23 96.7C468.36 96.7 471.64 95.09 474.08 91.87C476.51 88.61 477.72 84.07 477.72 78.24C477.72 73.03 476.48 68.81 473.99 65.59C471.53 62.34 468.25 60.71 464.14 60.71C460.13 60.71 456.89 62.31 454.43 65.5C451.97 68.69 450.74 73.26 450.74 79.21ZM568.82 102.46L560.34 102.46L560.34 72.88L528.08 72.88L528.08 102.46L519.65 102.46L519.65 38.47L528.08 38.47L528.08 65.98L560.34 65.98L560.34 38.47L568.82 38.47L568.82 102.46ZM611.89 97.76C608.72 101.48 604.08 103.34 597.96 103.34C592.89 103.34 589.02 101.87 586.36 98.94C583.72 95.98 582.39 91.62 582.36 85.85L582.36 54.91L590.49 54.91L590.49 85.63C590.49 92.83 593.42 96.44 599.28 96.44C605.49 96.44 609.62 94.12 611.67 89.49L611.67 54.91L619.8 54.91L619.8 102.46L612.06 102.46L611.89 97.76ZM643.22 43.39L643.22 54.91L652.1 54.91L652.1 61.19L643.22 61.19L643.22 90.68C643.22 92.58 643.62 94.02 644.41 94.99C645.2 95.92 646.55 96.39 648.45 96.39C649.39 96.39 650.68 96.22 652.32 95.87L652.32 102.46C650.18 103.04 648.1 103.34 646.08 103.34C642.44 103.34 639.71 102.24 637.86 100.04C636.01 97.84 635.09 94.72 635.09 90.68L635.09 61.19L626.43 61.19L626.43 54.91L635.09 54.91L635.09 43.39L643.22 43.39Z" />
		<path id="Layer" fill-rule="evenodd" class="shp0" d="M155.23 141.66C153.15 141.66 151.29 141.2 149.63 140.3C148.01 139.39 146.73 138.12 145.79 136.5C144.86 134.84 144.39 132.99 144.39 130.94C144.39 128.88 144.86 127.04 145.79 125.42C146.73 123.79 148.01 122.52 149.63 121.62C151.29 120.71 153.15 120.26 155.23 120.26C157.05 120.26 158.66 120.62 160.07 121.34C161.51 122.03 162.65 123.06 163.47 124.42L161.35 125.86C160.66 124.82 159.78 124.04 158.71 123.54C157.65 123 156.49 122.74 155.23 122.74C153.71 122.74 152.34 123.08 151.11 123.78C149.91 124.44 148.97 125.4 148.27 126.66C147.61 127.91 147.27 129.34 147.27 130.94C147.27 132.56 147.61 134 148.27 135.26C148.97 136.48 149.91 137.44 151.11 138.14C152.34 138.8 153.71 139.14 155.23 139.14C156.49 139.14 157.65 138.88 158.71 138.38C159.78 137.87 160.66 137.1 161.35 136.06L163.47 137.5C162.65 138.86 161.51 139.9 160.07 140.62C158.63 141.31 157.02 141.66 155.23 141.66ZM177.3 141.66C175.27 141.66 173.45 141.2 171.82 140.3C170.19 139.36 168.91 138.08 167.98 136.46C167.05 134.83 166.58 132.99 166.58 130.94C166.58 128.88 167.05 127.04 167.98 125.42C168.91 123.79 170.19 122.52 171.82 121.62C173.45 120.71 175.27 120.26 177.3 120.26C179.33 120.26 181.15 120.71 182.78 121.62C184.41 122.52 185.67 123.79 186.58 125.42C187.51 127.04 187.98 128.88 187.98 130.94C187.98 132.99 187.51 134.83 186.58 136.46C185.67 138.08 184.41 139.36 182.78 140.3C181.15 141.2 179.33 141.66 177.3 141.66ZM177.3 139.14C178.79 139.14 180.13 138.8 181.3 138.14C182.5 137.44 183.43 136.47 184.1 135.22C184.77 133.96 185.1 132.54 185.1 130.94C185.1 129.34 184.77 127.91 184.1 126.66C183.43 125.4 182.5 124.44 181.3 123.78C180.13 123.08 178.79 122.74 177.3 122.74C175.81 122.74 174.46 123.08 173.26 123.78C172.09 124.44 171.15 125.4 170.46 126.66C169.79 127.91 169.46 129.34 169.46 130.94C169.46 132.54 169.79 133.96 170.46 135.22C171.15 136.47 172.09 137.44 173.26 138.14C174.46 138.8 175.81 139.14 177.3 139.14ZM220.02 120.26C222.66 120.26 224.72 121.02 226.22 122.54C227.74 124.06 228.5 126.3 228.5 129.26L228.5 141.46L225.66 141.46L225.66 129.54C225.66 127.35 225.12 125.68 224.06 124.54C223.02 123.39 221.54 122.82 219.62 122.82C217.43 122.82 215.71 123.5 214.46 124.86C213.2 126.19 212.58 128.04 212.58 130.42L212.58 141.46L209.74 141.46L209.74 129.54C209.74 127.35 209.2 125.68 208.14 124.54C207.1 123.39 205.6 122.82 203.66 122.82C201.5 122.82 199.78 123.5 198.5 124.86C197.24 126.19 196.62 128.04 196.62 130.42L196.62 141.46L193.78 141.46L193.78 120.42L196.5 120.42L196.5 124.26C197.24 122.98 198.28 121.99 199.62 121.3C200.95 120.6 202.48 120.26 204.22 120.26C205.98 120.26 207.5 120.63 208.78 121.38C210.08 122.12 211.06 123.23 211.7 124.7C212.47 123.31 213.58 122.23 215.02 121.46C216.48 120.66 218.15 120.26 220.02 120.26ZM247.04 120.26C249.01 120.26 250.8 120.71 252.4 121.62C254 122.5 255.25 123.75 256.16 125.38C257.07 127 257.52 128.86 257.52 130.94C257.52 133.04 257.07 134.91 256.16 136.54C255.25 138.16 254 139.43 252.4 140.34C250.83 141.22 249.04 141.66 247.04 141.66C245.33 141.66 243.79 141.31 242.4 140.62C241.04 139.9 239.92 138.86 239.04 137.5L239.04 149.22L236.2 149.22L236.2 120.42L238.92 120.42L238.92 124.58C239.77 123.19 240.89 122.12 242.28 121.38C243.69 120.63 245.28 120.26 247.04 120.26ZM246.84 139.14C248.31 139.14 249.64 138.8 250.84 138.14C252.04 137.44 252.97 136.47 253.64 135.22C254.33 133.96 254.68 132.54 254.68 130.94C254.68 129.34 254.33 127.92 253.64 126.7C252.97 125.44 252.04 124.47 250.84 123.78C249.64 123.08 248.31 122.74 246.84 122.74C245.35 122.74 244 123.08 242.8 123.78C241.63 124.47 240.69 125.44 240 126.7C239.33 127.92 239 129.34 239 130.94C239 132.54 239.33 133.96 240 135.22C240.69 136.47 241.63 137.44 242.8 138.14C244 138.8 245.35 139.14 246.84 139.14ZM270.55 120.26C273.3 120.26 275.4 120.95 276.87 122.34C278.34 123.7 279.07 125.72 279.07 128.42L279.07 141.46L276.35 141.46L276.35 138.18C275.71 139.27 274.76 140.12 273.51 140.74C272.28 141.35 270.82 141.66 269.11 141.66C266.76 141.66 264.9 141.1 263.51 139.98C262.12 138.86 261.43 137.38 261.43 135.54C261.43 133.75 262.07 132.31 263.35 131.22C264.66 130.12 266.72 129.58 269.55 129.58L276.23 129.58L276.23 128.3C276.23 126.48 275.72 125.11 274.71 124.18C273.7 123.22 272.22 122.74 270.27 122.74C268.94 122.74 267.66 122.96 266.43 123.42C265.2 123.84 264.15 124.44 263.27 125.22L261.99 123.1C263.06 122.19 264.34 121.5 265.83 121.02C267.32 120.51 268.9 120.26 270.55 120.26ZM269.55 139.42C271.15 139.42 272.52 139.06 273.67 138.34C274.82 137.59 275.67 136.52 276.23 135.14L276.23 131.7L269.63 131.7C266.03 131.7 264.23 132.95 264.23 135.46C264.23 136.68 264.7 137.66 265.63 138.38C266.56 139.07 267.87 139.42 269.55 139.42ZM289.51 124.54C290.17 123.12 291.16 122.06 292.47 121.34C293.8 120.62 295.44 120.26 297.39 120.26L297.39 123.02L296.71 122.98C294.49 122.98 292.76 123.66 291.51 125.02C290.25 126.38 289.63 128.28 289.63 130.74L289.63 141.46L286.79 141.46L286.79 120.42L289.51 120.42L289.51 124.54ZM320.65 131.82L303.05 131.82C303.21 134 304.05 135.78 305.57 137.14C307.09 138.47 309.01 139.14 311.33 139.14C312.64 139.14 313.84 138.91 314.93 138.46C316.03 137.98 316.97 137.28 317.77 136.38L319.37 138.22C318.44 139.34 317.27 140.19 315.85 140.78C314.47 141.36 312.93 141.66 311.25 141.66C309.09 141.66 307.17 141.2 305.49 140.3C303.84 139.36 302.55 138.08 301.61 136.46C300.68 134.83 300.21 132.99 300.21 130.94C300.21 128.88 300.65 127.04 301.53 125.42C302.44 123.79 303.67 122.52 305.21 121.62C306.79 120.71 308.55 120.26 310.49 120.26C312.44 120.26 314.19 120.71 315.73 121.62C317.28 122.52 318.49 123.79 319.37 125.42C320.25 127.02 320.69 128.86 320.69 130.94L320.65 131.82ZM310.49 122.7C308.47 122.7 306.76 123.35 305.37 124.66C304.01 125.94 303.24 127.62 303.05 129.7L317.97 129.7C317.79 127.62 317 125.94 315.61 124.66C314.25 123.35 312.55 122.7 310.49 122.7ZM354.62 120.42L344.1 143.98C343.25 145.95 342.26 147.35 341.14 148.18C340.02 149 338.67 149.42 337.1 149.42C336.09 149.42 335.14 149.26 334.26 148.94C333.38 148.62 332.62 148.14 331.98 147.5L333.3 145.38C334.37 146.44 335.65 146.98 337.14 146.98C338.1 146.98 338.91 146.71 339.58 146.18C340.27 145.64 340.91 144.74 341.5 143.46L342.42 141.42L333.02 120.42L335.98 120.42L343.9 138.3L351.82 120.42L354.62 120.42ZM366.64 141.66C364.61 141.66 362.78 141.2 361.16 140.3C359.53 139.36 358.25 138.08 357.32 136.46C356.38 134.83 355.92 132.99 355.92 130.94C355.92 128.88 356.38 127.04 357.32 125.42C358.25 123.79 359.53 122.52 361.16 121.62C362.78 120.71 364.61 120.26 366.64 120.26C368.66 120.26 370.49 120.71 372.12 121.62C373.74 122.52 375.01 123.79 375.92 125.42C376.85 127.04 377.32 128.88 377.32 130.94C377.32 132.99 376.85 134.83 375.92 136.46C375.01 138.08 373.74 139.36 372.12 140.3C370.49 141.2 368.66 141.66 366.64 141.66ZM366.64 139.14C368.13 139.14 369.46 138.8 370.64 138.14C371.84 137.44 372.77 136.47 373.44 135.22C374.1 133.96 374.44 132.54 374.44 130.94C374.44 129.34 374.1 127.91 373.44 126.66C372.77 125.4 371.84 124.44 370.64 123.78C369.46 123.08 368.13 122.74 366.64 122.74C365.14 122.74 363.8 123.08 362.6 123.78C361.42 124.44 360.49 125.4 359.8 126.66C359.13 127.91 358.8 129.34 358.8 130.94C358.8 132.54 359.13 133.96 359.8 135.22C360.49 136.47 361.42 137.44 362.6 138.14C363.8 138.8 365.14 139.14 366.64 139.14ZM402.07 120.42L402.07 141.46L399.35 141.46L399.35 137.62C398.61 138.9 397.58 139.9 396.27 140.62C394.97 141.31 393.47 141.66 391.79 141.66C389.05 141.66 386.87 140.9 385.27 139.38C383.7 137.83 382.91 135.58 382.91 132.62L382.91 120.42L385.75 120.42L385.75 132.34C385.75 134.55 386.3 136.23 387.39 137.38C388.49 138.52 390.05 139.1 392.07 139.1C394.29 139.1 396.03 138.43 397.31 137.1C398.59 135.74 399.23 133.86 399.23 131.46L399.23 120.42L402.07 120.42ZM412.75 124.54C413.41 123.12 414.4 122.06 415.71 121.34C417.04 120.62 418.68 120.26 420.63 120.26L420.63 123.02L419.95 122.98C417.73 122.98 416 123.66 414.75 125.02C413.49 126.38 412.87 128.28 412.87 130.74L412.87 141.46L410.03 141.46L410.03 120.42L412.75 120.42L412.75 124.54ZM439.27 124.54C439.94 123.12 440.92 122.06 442.23 121.34C443.56 120.62 445.2 120.26 447.15 120.26L447.15 123.02L446.47 122.98C444.26 122.98 442.52 123.66 441.27 125.02C440.02 126.38 439.39 128.28 439.39 130.74L439.39 141.46L436.55 141.46L436.55 120.42L439.27 120.42L439.27 124.54ZM470.42 131.82L452.82 131.82C452.98 134 453.82 135.78 455.34 137.14C456.86 138.47 458.78 139.14 461.1 139.14C462.4 139.14 463.6 138.91 464.7 138.46C465.79 137.98 466.74 137.28 467.54 136.38L469.14 138.22C468.2 139.34 467.03 140.19 465.62 140.78C464.23 141.36 462.7 141.66 461.02 141.66C458.86 141.66 456.94 141.2 455.26 140.3C453.6 139.36 452.31 138.08 451.38 136.46C450.44 134.83 449.98 132.99 449.98 130.94C449.98 128.88 450.42 127.04 451.3 125.42C452.2 123.79 453.43 122.52 454.98 121.62C456.55 120.71 458.31 120.26 460.26 120.26C462.2 120.26 463.95 120.71 465.5 121.62C467.04 122.52 468.26 123.79 469.14 125.42C470.02 127.02 470.46 128.86 470.46 130.94L470.42 131.82ZM460.26 122.7C458.23 122.7 456.52 123.35 455.14 124.66C453.78 125.94 453 127.62 452.82 129.7L467.74 129.7C467.55 127.62 466.76 125.94 465.38 124.66C464.02 123.35 462.31 122.7 460.26 122.7ZM487.32 140.18C486.79 140.66 486.12 141.03 485.32 141.3C484.55 141.54 483.73 141.66 482.88 141.66C480.91 141.66 479.39 141.12 478.32 140.06C477.25 138.99 476.72 137.48 476.72 135.54L476.72 122.82L472.96 122.82L472.96 120.42L476.72 120.42L476.72 115.82L479.56 115.82L479.56 120.42L485.96 120.42L485.96 122.82L479.56 122.82L479.56 135.38C479.56 136.63 479.87 137.59 480.48 138.26C481.12 138.9 482.03 139.22 483.2 139.22C483.79 139.22 484.35 139.12 484.88 138.94C485.44 138.75 485.92 138.48 486.32 138.14L487.32 140.18ZM511.45 120.42L511.45 141.46L508.73 141.46L508.73 137.62C507.98 138.9 506.96 139.9 505.65 140.62C504.34 141.31 502.85 141.66 501.17 141.66C498.42 141.66 496.25 140.9 494.65 139.38C493.08 137.83 492.29 135.58 492.29 132.62L492.29 120.42L495.13 120.42L495.13 132.34C495.13 134.55 495.68 136.23 496.77 137.38C497.86 138.52 499.42 139.1 501.45 139.1C503.66 139.1 505.41 138.43 506.69 137.1C507.97 135.74 508.61 133.86 508.61 131.46L508.61 120.42L511.45 120.42ZM522.12 124.54C522.79 123.12 523.78 122.06 525.08 121.34C526.42 120.62 528.06 120.26 530 120.26L530 123.02L529.32 122.98C527.11 122.98 525.38 123.66 524.12 125.02C522.87 126.38 522.24 128.28 522.24 130.74L522.24 141.46L519.4 141.46L519.4 120.42L522.12 120.42L522.12 124.54ZM545.86 120.26C548.5 120.26 550.6 121.03 552.14 122.58C553.72 124.1 554.5 126.32 554.5 129.26L554.5 141.46L551.66 141.46L551.66 129.54C551.66 127.35 551.12 125.68 550.02 124.54C548.93 123.39 547.37 122.82 545.34 122.82C543.08 122.82 541.28 123.5 539.94 124.86C538.64 126.19 537.98 128.04 537.98 130.42L537.98 141.46L535.14 141.46L535.14 120.42L537.86 120.42L537.86 124.3C538.64 123.02 539.7 122.03 541.06 121.34C542.45 120.62 544.05 120.26 545.86 120.26ZM567.86 141.66C566.15 141.66 564.51 141.42 562.94 140.94C561.39 140.43 560.18 139.8 559.3 139.06L560.58 136.82C561.46 137.51 562.56 138.08 563.9 138.54C565.23 138.96 566.62 139.18 568.06 139.18C569.98 139.18 571.39 138.88 572.3 138.3C573.23 137.68 573.7 136.83 573.7 135.74C573.7 134.96 573.44 134.36 572.94 133.94C572.43 133.48 571.79 133.15 571.02 132.94C570.24 132.7 569.22 132.47 567.94 132.26C566.23 131.94 564.86 131.62 563.82 131.3C562.78 130.95 561.88 130.38 561.14 129.58C560.42 128.78 560.06 127.67 560.06 126.26C560.06 124.5 560.79 123.06 562.26 121.94C563.72 120.82 565.76 120.26 568.38 120.26C569.74 120.26 571.1 120.44 572.46 120.82C573.82 121.16 574.94 121.63 575.82 122.22L574.58 124.5C572.84 123.3 570.78 122.7 568.38 122.7C566.56 122.7 565.19 123.02 564.26 123.66C563.35 124.3 562.9 125.14 562.9 126.18C562.9 126.98 563.15 127.62 563.66 128.1C564.19 128.58 564.84 128.94 565.62 129.18C566.39 129.39 567.46 129.62 568.82 129.86C570.5 130.18 571.84 130.5 572.86 130.82C573.87 131.14 574.74 131.68 575.46 132.46C576.18 133.23 576.54 134.3 576.54 135.66C576.54 137.5 575.76 138.96 574.22 140.06C572.7 141.12 570.58 141.66 567.86 141.66Z" />
	</g>
</svg>
