<?xml version="1.0" encoding="iso-8859-1"?>
<!-- Generator: Adobe Illustrator 19.0.0, SVG Export Plug-In . SVG Version: 6.00 Build 0)  -->
<svg version="1.1" id="Layer_1" xmlns="http://www.w3.org/2000/svg" xmlns:xlink="http://www.w3.org/1999/xlink" x="0px" y="0px"
	 viewBox="0 0 512 512" style="enable-background:new 0 0 512 512;" xml:space="preserve">
<g>
	<rect x="396.8" y="320" style="fill:#573A32;" width="115.2" height="25.6"/>
	<rect x="396.8" y="371.2" style="fill:#573A32;" width="115.2" height="25.6"/>
	<rect x="396.8" y="422.4" style="fill:#573A32;" width="115.2" height="25.6"/>
	<rect x="281.6" y="268.8" style="fill:#573A32;" width="230.4" height="25.6"/>
	<rect x="281.6" y="217.6" style="fill:#573A32;" width="230.4" height="25.6"/>
	<rect x="140.8" y="473.6" style="fill:#573A32;" width="230.4" height="25.6"/>
	<rect x="140.8" y="422.4" style="fill:#573A32;" width="230.4" height="25.6"/>
	<rect x="140.8" y="371.2" style="fill:#573A32;" width="230.4" height="25.6"/>
	<rect x="140.8" y="320" style="fill:#573A32;" width="230.4" height="25.6"/>
	<rect y="320" style="fill:#573A32;" width="115.2" height="25.6"/>
	<rect y="371.2" style="fill:#573A32;" width="115.2" height="25.6"/>
	<rect y="422.4" style="fill:#573A32;" width="115.2" height="25.6"/>
	<rect y="268.8" style="fill:#573A32;" width="230.4" height="25.6"/>
	<rect y="217.6" style="fill:#573A32;" width="230.4" height="25.6"/>
	<rect y="166.4" style="fill:#573A32;" width="230.4" height="25.6"/>
	<rect y="115.2" style="fill:#573A32;" width="230.4" height="25.6"/>
	<rect y="64" style="fill:#573A32;" width="230.4" height="25.6"/>
	<rect y="12.8" style="fill:#573A32;" width="230.4" height="25.6"/>
</g>
<g>
</g>
<g>
</g>
<g>
</g>
<g>
</g>
<g>
</g>
<g>
</g>
<g>
</g>
<g>
</g>
<g>
</g>
<g>
</g>
<g>
</g>
<g>
</g>
<g>
</g>
<g>
</g>
<g>
</g>
</svg>
